HIERARCHY
ROOT Hips
{
 OFFSET 0.000000 0.000000 0.000000
 CHANNELS 6 Xposition Yposition Zposition Yrotation Xrotation Zrotation
 JOINT Chest
 {
  OFFSET 0.000000 9.585900 0.002600
  CHANNELS 3 Yrotation Xrotation Zrotation
  JOINT Chest2
  {
   OFFSET 0.000000 9.601200 -0.005300
   CHANNELS 3 Yrotation Xrotation Zrotation
   JOINT Chest3
   {
    OFFSET 0.000000 9.561800 0.000000
    CHANNELS 3 Yrotation Xrotation Zrotation
    JOINT Chest4
    {
     OFFSET 0.000000 9.552100 0.000000
     CHANNELS 3 Yrotation Xrotation Zrotation
     JOINT Neck
     {
      OFFSET 0.000000 14.453000 0.000000
      CHANNELS 3 Yrotation Xrotation Zrotation
      JOINT Head
      {
       OFFSET 0.000000 8.936500 -0.011300
       CHANNELS 3 Yrotation Xrotation Zrotation
       End Site
       {
        OFFSET 0.000000 17.073600 -0.006000
       }
      }
     }
     JOINT RightCollar
     {
      OFFSET -2.921100 9.558500 0.000000
      CHANNELS 3 Yrotation Xrotation Zrotation
      JOINT RightShoulder
      {
       OFFSET -13.519700 0.000000 0.000000
       CHANNELS 3 Yrotation Xrotation Zrotation
       JOINT RightElbow
       {
        OFFSET 0.000000 -29.696600 0.000000
        CHANNELS 3 Yrotation Xrotation Zrotation
        JOINT RightWrist
        {
         OFFSET 0.000000 -24.004700 0.000000
         CHANNELS 3 Yrotation Xrotation Zrotation
         End Site
         {
          OFFSET 0.000000 -17.728500 0.000000
         }
        }
       }
      }
     }
     JOINT LeftCollar
     {
      OFFSET 2.921100 9.558500 0.000000
      CHANNELS 3 Yrotation Xrotation Zrotation
      JOINT LeftShoulder
      {
       OFFSET 13.519700 0.000000 0.000000
       CHANNELS 3 Yrotation Xrotation Zrotation
       JOINT LeftElbow
       {
        OFFSET 0.000000 -29.696600 0.000000
        CHANNELS 3 Yrotation Xrotation Zrotation
        JOINT LeftWrist
        {
         OFFSET 0.000000 -24.004700 0.000000
         CHANNELS 3 Yrotation Xrotation Zrotation
         End Site
         {
          OFFSET 0.000000 -17.728500 0.000000
         }
        }
       }
      }
     }
    }
   }
  }
 }
 JOINT RightHip
 {
  OFFSET -7.771700 -0.012900 -0.001300
  CHANNELS 3 Yrotation Xrotation Zrotation
  JOINT RightKnee
  {
   OFFSET 0.000000 -40.869800 0.001200
   CHANNELS 3 Yrotation Xrotation Zrotation
   JOINT RightAnkle
   {
    OFFSET 0.000000 -39.717900 0.002100
    CHANNELS 3 Yrotation Xrotation Zrotation
    JOINT RightToe
    {
     OFFSET 0.000000 -4.965400 11.033500
     CHANNELS 3 Yrotation Xrotation Zrotation
     End Site
     {
      OFFSET 0.000000 -1.423100 5.872300
     }
    }
   }
  }
 }
 JOINT LeftHip
 {
  OFFSET 7.771700 -0.012900 -0.001300
  CHANNELS 3 Yrotation Xrotation Zrotation
  JOINT LeftKnee
  {
   OFFSET 0.000000 -40.869800 0.001200
   CHANNELS 3 Yrotation Xrotation Zrotation
   JOINT LeftAnkle
   {
    OFFSET 0.000000 -39.717900 0.002100
    CHANNELS 3 Yrotation Xrotation Zrotation
    JOINT LeftToe
    {
     OFFSET 0.000000 -4.965400 11.033500
     CHANNELS 3 Yrotation Xrotation Zrotation
     End Site
     {
      OFFSET 0.000000 -1.423100 5.872300
     }
    }
   }
  }
 }
}
MOTION
Frames: 5
Frame Time: 0.008333
0.000000 85.388000 0.000000 0.000000 -5.767877 0.000000 0.000000 11.653817 0.000000 0.000000 -5.885947 0.000000 0.000000 -0.000000 0.000000 0.000000 -0.000000 0.000000 0.000000 12.528835 0.000000 0.000000 0.711642 0.000000 0.000000 -0.000000 0.000000 0.000000 0.000000 -90.000000 0.000000 -2.309062 0.000000 0.000000 2.309062 0.000000 0.000000 -0.000000 0.000000 0.000000 -0.000000 90.000000 0.000000 -2.309062 0.000000 0.000000 2.309062 0.000000 0.000000 8.520406 0.000000 0.000000 1.905762 0.000000 -0.000000 -4.658285 0.000000 0.000000 -0.000000 0.000000 0.000000 8.520406 0.000000 0.000000 1.905762 0.000000 -0.000000 -4.658285 0.000000 0.000000 -0.000000 0.000000
11.504413 52.167228 40.284726 170.903736 -38.105194 -1.770077 3.480324 21.665736 1.977667 0.381083 2.969595 0.381849 0.648789 4.866666 0.639087 2.788865 18.340704 2.777161 2.378888 20.429927 0.690044 4.128166 2.288578 0.551929 -3.375638 -2.244752 -2.922096 11.660221 -22.195077 4.562992 146.642466 -83.809302 -137.569607 1.213621 -9.175133 -16.250048 -7.034470 0.948798 -0.412768 -0.028236 -21.461997 4.417275 -156.399058 -69.602120 135.511450 -17.568033 -12.229875 31.724656 -4.853770 -43.318660 5.012618 128.645054 83.868828 132.379380 -4.271348 -10.524810 -2.968279 0.692871 -1.066695 0.313443 1.851433 -39.591212 7.066003 73.628574 82.884449 62.909647 -7.146009 -12.472075 9.562788 0.474762 1.424728 0.212559
11.502822 52.168471 40.289775 170.902472 -38.121323 -1.761718 3.480572 21.684447 1.971563 0.387385 2.985472 0.384616 0.647631 4.863256 0.638676 2.788267 18.339453 2.776904 2.378890 20.472572 0.687483 4.108867 2.260353 0.548726 -3.352445 -2.229845 -2.911956 11.735385 -22.214820 4.525743 145.905316 -83.869991 -136.937554 1.217492 -9.168733 -16.281459 -7.037415 0.945796 -0.414728 -0.056776 -21.452741 4.404775 -156.291638 -69.603369 135.424333 -17.587361 -12.195380 31.771779 -4.862131 -43.302736 5.009333 128.622380 83.870938 132.346649 -4.267255 -10.518823 -2.968949 0.690129 -1.068594 0.310501 1.853336 -39.575729 7.051005 73.568782 82.875112 62.853175 -7.140253 -12.458904 9.553514 0.483681 1.418866 0.215125
11.502091 52.168795 40.297206 170.898632 -38.128513 -1.758058 3.490916 21.698419 1.977299 0.392923 2.994716 0.388451 0.641715 4.860367 0.634226 2.809493 18.370853 2.783537 2.358558 20.475297 0.682232 4.088660 2.238305 0.547520 -3.346624 -2.256695 -2.895334 11.797280 -22.248819 4.483671 144.875492 -83.932887 -136.002755 1.224798 -9.171486 -16.312678 -7.059542 0.942080 -0.420115 -0.073898 -21.488596 4.410465 -155.817175 -69.698428 134.988332 -17.607258 -12.318595 31.885919 -4.879188 -43.294234 5.010610 128.578640 83.880780 132.299840 -4.254420 -10.511960 -2.979062 0.690119 -1.066873 0.307059 1.855200 -39.569421 7.040409 73.495971 82.862385 62.785660 -7.127648 -12.453334 9.543314 0.493390 1.421344 0.218023
11.502956 52.170212 40.304066 170.879217 -38.146894 -1.752283 3.510982 21.711818 1.989089 0.392298 2.999239 0.386056 0.648371 4.870852 0.638156 2.821007 18.384628 2.786218 2.340738 20.483921 0.675774 4.032550 2.298567 0.527569 -3.325122 -2.251708 -2.872043 11.842954 -22.307465 4.429949 143.615097 -83.991553 -134.828797 1.241063 -9.173293 -16.342185 -7.090423 0.957353 -0.424829 -0.107482 -21.517050 4.394038 -155.359477 -69.722435 134.593312 -17.619805 -12.371447 31.968523 -4.888857 -43.274407 5.013958 128.486419 83.886686 132.210882 -4.233913 -10.498855 -2.991308 0.678091 -1.072306 0.302120 1.865352 -39.552144 7.044431 73.461753 82.855438 62.753142 -7.117418 -12.449763 9.541429 0.494144 1.419768 0.217754
